<svg width="26" height="23" viewBox="0 0 26 23" fill="none" xmlns="http://www.w3.org/2000/svg">
<path d="M7.2125 3.5H7.43272L7.58138 3.33753L9.72022 1H16.7798L18.9186 3.33753L19.0673 3.5H19.2875H23.25C24.3489 3.5 25.25 4.40114 25.25 5.5V20.5C25.25 21.5989 24.3489 22.5 23.25 22.5H3.25C2.15114 22.5 1.25 21.5989 1.25 20.5V5.5C1.25 4.40114 2.15114 3.5 3.25 3.5H7.2125ZM6.5 13C6.5 16.7261 9.52386 19.75 13.25 19.75C16.9761 19.75 20 16.7261 20 13C20 9.27386 16.9761 6.25 13.25 6.25C9.52386 6.25 6.5 9.27386 6.5 13Z" stroke="white"/>
</svg>
