<svg width="18" height="26" viewBox="0 0 18 26" fill="none" xmlns="http://www.w3.org/2000/svg">
<path d="M8.75 24.7413C8.51368 24.4669 8.17614 24.0678 7.77104 23.5687C6.95717 22.5659 5.87283 21.162 4.78948 19.5563C3.70517 17.9492 2.62803 16.149 1.82349 14.3532C1.01601 12.5508 0.5 10.7895 0.5 9.25C0.5 4.68864 4.18864 1 8.75 1C13.3114 1 17 4.68864 17 9.25C17 10.7895 16.484 12.5508 15.6765 14.3532C14.872 16.149 13.7948 17.9492 12.7105 19.5563C11.6272 21.162 10.5428 22.5659 9.72896 23.5687C9.32386 24.0678 8.98632 24.4669 8.75 24.7413ZM5.125 9.25C5.125 11.2511 6.74886 12.875 8.75 12.875C10.7511 12.875 12.375 11.2511 12.375 9.25C12.375 7.24886 10.7511 5.625 8.75 5.625C6.74886 5.625 5.125 7.24886 5.125 9.25Z" stroke="white"/>
</svg>
